<svg xmlns="http://www.w3.org/2000/svg" viewBox="0 0 347.72 89.58"><defs><style>.cls-1{fill:#385dab;}.cls-2{fill:#fff;}</style></defs><g id="Layer_2" data-name="Layer 2"><g id="Layer_1-2" data-name="Layer 1"><path class="cls-1" d="M145.81,17.82v7.09h-11V75.78h-8.12V24.91h-11V17.82Z"/><path class="cls-1" d="M151.71,13.55h8v14.7a23.39,23.39,0,0,1,9.36-1.88,11.81,11.81,0,0,1,8.16,2.82q3.16,2.82,3.16,8.38V75.78h-8.2V38.93q0-5-5-5a16.37,16.37,0,0,0-7.43,1.8V75.78h-8Z"/><path class="cls-1" d="M190.09,27.82a40,40,0,0,1,12.4-1.62q14.61,0,14.61,13.25V75.78h-7.69V72.27A13.39,13.39,0,0,1,199.5,76q-11.81,0-11.8-11.88V61.33a11.6,11.6,0,0,1,2.48-7.74q2.48-2.94,7.95-4.48L209.33,46V39.45q0-3.16-1.71-4.58t-7.23-1.41a30.41,30.41,0,0,0-10.3,1.71Zm5.56,33.85v2.57A5.83,5.83,0,0,0,197,68.43c.89.91,2.62,1.36,5.22,1.36a11,11,0,0,0,7.14-2.65V52.87l-8.13,2.22q-3.33.94-4.44,2.35A6.76,6.76,0,0,0,195.65,61.67Z"/><path class="cls-1" d="M227.28,13.55h8v14.7a25.54,25.54,0,0,1,9.7-1.88,11.34,11.34,0,0,1,8.12,2.86q3,2.86,3,8.34V63.13q0,6.15-3.51,9.4a13.12,13.12,0,0,1-9.31,3.25H227.28Zm20.77,25.38q0-5-5.22-5a21.7,21.7,0,0,0-7.52,1.71V68.43h6.07q6.68,0,6.67-6.16Z"/><path class="cls-1" d="M265.4,27.82a40,40,0,0,1,12.4-1.62q14.61,0,14.61,13.25V75.78h-7.69V72.27A13.4,13.4,0,0,1,274.8,76Q263,76,263,64.15V61.33a11.6,11.6,0,0,1,2.48-7.74q2.47-2.94,7.95-4.48L284.63,46V39.45q0-3.16-1.7-4.58c-1.15-.94-3.55-1.41-7.23-1.41a30.41,30.41,0,0,0-10.3,1.71ZM271,61.67v2.57a5.83,5.83,0,0,0,1.32,4.19c.89.91,2.62,1.36,5.22,1.36a11,11,0,0,0,7.13-2.65V52.87l-8.12,2.22q-3.33.94-4.44,2.35A6.76,6.76,0,0,0,271,61.67Z"/><path class="cls-1" d="M302.59,13.55h8V75.78h-8Z"/><path class="cls-1" d="M320.71,27.82A39.9,39.9,0,0,1,333.1,26.2q14.63,0,14.62,13.25V75.78H340V72.27A13.41,13.41,0,0,1,330.11,76q-11.79,0-11.8-11.88V61.33a11.65,11.65,0,0,1,2.48-7.74q2.47-2.94,7.95-4.48L339.94,46V39.45q0-3.16-1.71-4.58T331,33.46a30.37,30.37,0,0,0-10.3,1.71Zm5.55,33.85v2.57a5.79,5.79,0,0,0,1.33,4.19q1.32,1.36,5.21,1.36a11,11,0,0,0,7.14-2.65V52.87l-8.12,2.22c-2.22.63-3.71,1.41-4.45,2.35A6.76,6.76,0,0,0,326.26,61.67Z"/><path class="cls-1" d="M89.58,44.79A44.79,44.79,0,0,1,48.32,89.44c-1.16.09-2.34.14-3.53.14a44.73,44.73,0,0,1-16.7-3.21l-.43-.18A44.91,44.91,0,0,1,6.47,68c-.14-.22-.28-.44-.4-.66A44.79,44.79,0,1,1,89.58,44.79Z"/><path class="cls-2" d="M71.77,37.19C71.12,39.4,67,39.35,65.24,39,58,37.73,47.68,33.46,43.81,36.48a3.94,3.94,0,0,0-.35.57c-.17.28-.37.65-.59,1.09v0s-1.51,2.69-1.51,2.69a25.56,25.56,0,0,0-1.72,3.33c-2.83,6.55-3.14,13.93-1.91,21l1.61,6.58c.15.49.31,1,.47,1.44a65.29,65.29,0,0,0,8.52,16.27c-1.17.09-2.34.14-3.53.14a44.78,44.78,0,0,1-16.71-3.21c-.14-.06-.28-.11-.42-.18a74,74,0,0,1-2.91-6.94,61.65,61.65,0,0,1-3.2-30.11c1.22-7.73,4.42-15,8.29-21.71.74-1.29,1.47-2.55,2.18-3.74a1.44,1.44,0,0,0-.09-1.58c-11.46-15.52,4.82-1.84,10.17-7.93.47-.68.14-2-.69-3.26-.42-.64-1.3-1.14-1.61-1.77-.76-1.55-.66-3,1.67-3.05a2.26,2.26,0,0,1,2,1c.53.86.33,2.24.55,3.3.26,1.3.94,2.19,1.84,1.88,1.5-1.2,0-3.13-.7-5A2.9,2.9,0,0,1,44.8,6a1.84,1.84,0,0,1,1.26-2,2.18,2.18,0,0,1,1.77.18,2.55,2.55,0,0,1,.85.81A5.11,5.11,0,0,1,49,9.1a5.19,5.19,0,0,0,.27,2.39c.75,2.23,1.92,3.87,2.42,3.74,5.77,1.77,5.48,4.6,8.19,7,.68.61,1.37,1.2,2,1.86A41.35,41.35,0,0,0,67,28.41c.58.45,1.15.91,1.7,1.38C69.58,30.53,72.42,35,71.77,37.19Z"/></g></g></svg>